<?xml version="1.0" encoding="UTF-8"?>
<svg xmlns="http://www.w3.org/2000/svg" viewBox="0 0 680 94" width="680" height="94">
  <polygon points="40.00,69.94 93.04,69.94 66.52,24.00" fill="#00ff88"/>
  <g transform="translate(107.04,69.94) scale(0.048000,-0.048000)" fill="#1a1a1a">
    <path d="M299 -10Q204 -10 147.0 46.5Q90 103 90 200V550H180V200Q180 138 212.0 103.5Q244 69 299 69Q355 69 387.5 103.5Q420 138 420 200V550H510V200Q510 103 452.0 46.5Q394 -10 299 -10ZM692 0V550H782V445H801L782 424Q782 489 821.0 524.5Q860 560 929 560Q1012 560 1061.0 509.0Q1110 458 1110 370V0H1020V360Q1020 419 988.5 450.5Q957 482 903 482Q847 482 814.5 448.0Q782 414 782 350V0ZM1575 0Q1527 0 1491.0 19.0Q1455 38 1435.0 73.0Q1415 108 1415 155V648H1230V730H1505V155Q1505 121 1524.0 101.5Q1543 82 1575 82H1750V0ZM2100 -10Q2035 -10 1986.5 16.0Q1938 42 1911.5 89.5Q1885 137 1885 200V350Q1885 414 1911.5 461.0Q1938 508 1986.5 534.0Q2035 560 2100 560Q2165 560 2213.5 534.0Q2262 508 2288.5 461.0Q2315 414 2315 350V253H1973V200Q1973 135 2006.0 100.5Q2039 66 2100 66Q2152 66 2184.0 84.5Q2216 103 2223 140H2313Q2304 71 2245.5 30.5Q2187 -10 2100 -10ZM2227 313V350Q2227 415 2194.5 450.0Q2162 485 2100 485Q2039 485 2006.0 450.0Q1973 415 1973 350V321H2234ZM2652 -10Q2565 -10 2515.0 34.5Q2465 79 2465 155Q2465 232 2515.0 276.0Q2565 320 2650 320H2820V375Q2820 426 2789.5 453.5Q2759 481 2703 481Q2654 481 2621.0 460.5Q2588 440 2583 405H2493Q2502 476 2560.0 518.0Q2618 560 2705 560Q2800 560 2855.0 511.0Q2910 462 2910 378V0H2822V105H2807L2822 120Q2822 60 2775.5 25.0Q2729 -10 2652 -10ZM2674 61Q2738 61 2779.0 93.0Q2820 125 2820 175V253H2652Q2607 253 2581.0 228.0Q2555 203 2555 160Q2555 114 2586.5 87.5Q2618 61 2674 61ZM3111 0V550H3199V445H3220L3191 380Q3191 469 3229.5 514.5Q3268 560 3344 560Q3431 560 3482.5 505.5Q3534 451 3534 358V325H3444V350Q3444 415 3412.5 449.5Q3381 484 3323 484Q3266 484 3233.5 449.0Q3201 414 3201 350V0ZM3692 0V550H3782V445H3801L3782 424Q3782 489 3821.0 524.5Q3860 560 3929 560Q4012 560 4061.0 509.0Q4110 458 4110 370V0H4020V360Q4020 419 3988.5 450.5Q3957 482 3903 482Q3847 482 3814.5 448.0Q3782 414 3782 350V0ZM4285 0V82H4480V468H4310V550H4570V82H4755V0ZM4515 649Q4482 649 4463.0 666.0Q4444 683 4444 712Q4444 742 4463.0 759.5Q4482 777 4515 777Q4548 777 4567.0 759.5Q4586 742 4586 712Q4586 683 4567.0 666.0Q4548 649 4515 649ZM4892 0V550H4982V445H5001L4982 424Q4982 489 5021.0 524.5Q5060 560 5129 560Q5212 560 5261.0 509.0Q5310 458 5310 370V0H5220V360Q5220 419 5188.5 450.5Q5157 482 5103 482Q5047 482 5014.5 448.0Q4982 414 4982 350V0ZM5561 -180V-98H5736Q5778 -98 5797.5 -79.0Q5817 -60 5817 -20V50L5819 150H5801L5818 165Q5818 105 5778.0 70.0Q5738 35 5671 35Q5586 35 5537.0 90.5Q5488 146 5488 240V356Q5488 450 5537.0 505.0Q5586 560 5671 560Q5738 560 5778.0 525.0Q5818 490 5818 430L5801 445H5818V550H5907V-20Q5907 -94 5861.5 -137.0Q5816 -180 5735 -180ZM5698 113Q5754 113 5786.0 148.0Q5818 183 5818 245V350Q5818 412 5786.0 447.0Q5754 482 5698 482Q5641 482 5609.5 448.0Q5578 414 5578 350V245Q5578 181 5609.5 147.0Q5641 113 5698 113ZM6604.0 -10Q6538.0 -10 6488.5 15.0Q6439.0 40 6412.0 87.5Q6385.0 135 6385.0 200V350Q6385.0 416 6412.0 463.0Q6439.0 510 6488.5 535.0Q6538.0 560 6604.0 560Q6699.0 560 6757.0 509.0Q6815.0 458 6818.0 370H6728.0Q6725.0 423 6692.5 451.5Q6660.0 480 6604.0 480Q6545.0 480 6510.0 446.5Q6475.0 413 6475.0 351V200Q6475.0 138 6510.0 104.0Q6545.0 70 6604.0 70Q6660.0 70 6692.5 99.0Q6725.0 128 6728.0 180H6818.0Q6815.0 92 6757.0 41.0Q6699.0 -10 6604.0 -10ZM7200.0 -8Q7134.0 -8 7086.0 17.0Q7038.0 42 7011.5 89.5Q6985.0 137 6985.0 202V348Q6985.0 414 7011.5 461.0Q7038.0 508 7086.0 533.0Q7134.0 558 7200.0 558Q7266.0 558 7314.0 533.0Q7362.0 508 7388.5 461.0Q7415.0 414 7415.0 349V202Q7415.0 137 7388.5 89.5Q7362.0 42 7314.0 17.0Q7266.0 -8 7200.0 -8ZM7200.0 72Q7259.0 72 7292.0 105.0Q7325.0 138 7325.0 202V348Q7325.0 412 7292.0 445.0Q7259.0 478 7200.0 478Q7142.0 478 7108.5 445.0Q7075.0 412 7075.0 348V202Q7075.0 138 7108.5 105.0Q7142.0 72 7200.0 72ZM7566.0 0V550H7645.0V484H7663.0L7649.0 460Q7649.0 506 7673.5 533.0Q7698.0 560 7740.0 560Q7786.0 560 7811.0 526.0Q7836.0 492 7836.0 430L7809.0 484H7851.0L7832.0 460Q7832.0 506 7857.5 533.0Q7883.0 560 7925.0 560Q7977.0 560 8005.5 521.0Q8034.0 482 8034.0 418V0H7951.0V419Q7951.0 453 7936.5 472.0Q7922.0 491 7894.0 491Q7867.0 491 7851.5 472.5Q7836.0 454 7836.0 420V0H7764.0V419Q7764.0 454 7748.5 472.5Q7733.0 491 7705.0 491Q7677.0 491 7663.0 472.5Q7649.0 454 7649.0 420V0ZM8192.0 -180V550H8282.0V445H8300.0L8282.0 424Q8282.0 487 8323.5 523.5Q8365.0 560 8433.0 560Q8516.0 560 8565.5 505.5Q8615.0 451 8615.0 356V195Q8615.0 132 8592.5 86.0Q8570.0 40 8529.5 15.0Q8489.0 -10 8433.0 -10Q8366.0 -10 8324.0 27.0Q8282.0 64 8282.0 126L8300.0 105H8280.0L8282.0 -20V-180ZM8403.0 68Q8460.0 68 8492.5 102.0Q8525.0 136 8525.0 200V350Q8525.0 414 8492.5 448.0Q8460.0 482 8403.0 482Q8348.0 482 8315.0 447.0Q8282.0 412 8282.0 350V200Q8282.0 138 8315.0 103.0Q8348.0 68 8403.0 68ZM8952.0 -10Q8865.0 -10 8815.0 34.5Q8765.0 79 8765.0 155Q8765.0 232 8815.0 276.0Q8865.0 320 8950.0 320H9120.0V375Q9120.0 426 9089.5 453.5Q9059.0 481 9003.0 481Q8954.0 481 8921.0 460.5Q8888.0 440 8883.0 405H8793.0Q8802.0 476 8860.0 518.0Q8918.0 560 9005.0 560Q9100.0 560 9155.0 511.0Q9210.0 462 9210.0 378V0H9122.0V105H9107.0L9122.0 120Q9122.0 60 9075.5 25.0Q9029.0 -10 8952.0 -10ZM8974.0 61Q9038.0 61 9079.0 93.0Q9120.0 125 9120.0 175V253H8952.0Q8907.0 253 8881.0 228.0Q8855.0 203 8855.0 160Q8855.0 114 8886.5 87.5Q8918.0 61 8974.0 61ZM9392.0 0V550H9482.0V445H9501.0L9482.0 424Q9482.0 489 9521.0 524.5Q9560.0 560 9629.0 560Q9712.0 560 9761.0 509.0Q9810.0 458 9810.0 370V0H9720.0V360Q9720.0 419 9688.5 450.5Q9657.0 482 9603.0 482Q9547.0 482 9514.5 448.0Q9482.0 414 9482.0 350V0ZM10078.0 -180 10159.0 34 9955.0 550H10055.0L10183.0 210Q10190.0 193 10196.0 169.5Q10202.0 146 10206.0 130Q10210.0 146 10216.0 169.5Q10222.0 193 10228.0 210L10348.0 550H10445.0L10174.0 -180Z"/>
  </g>
  <rect x="615.04" y="34.90" width="24.48" height="35.04" fill="#1a1a1a"/>
</svg>
